<svg id="Camada_5" data-name="Camada 5" xmlns="http://www.w3.org/2000/svg" viewBox="0 0 360 91.8"><defs><style>.cls-1{font-size:34.2px;fill:#3c9591;font-family:Hind-Regular, Hind;}.cls-2{fill:none;stroke:#3c9591;stroke-miterlimit:10;stroke-width:1.8px;}</style></defs><title>logo</title><text class="cls-1" transform="translate(62.6 66.9)">THIRTEEN ROBOTICS</text><path class="cls-2" d="M45.9,8.4,69.2,79.8a.8.8,0,0,1-.8,1.1H21.8a.8.8,0,0,1-.8-1.1L44.3,8.4A.9.9,0,0,1,45.9,8.4Z" transform="translate(-20.1 -7)"/><line class="cls-2" x1="10" y1="45.2" x2="48.8" y2="73.5"/><line class="cls-2" x1="1.2" y1="73.4" x2="24.8" y2="55.9"/><line class="cls-2" x1="10" y1="45.4" x2="15.6" y2="62.7"/><path class="cls-2" d="M21.1,80.6l24,17a1.7,1.7,0,0,0,2-.1L68.9,80.7" transform="translate(-20.1 -7)"/><path class="cls-2" d="M45.2,97.8" transform="translate(-20.1 -7)"/></svg>