<?xml version="1.0" encoding="iso-8859-1"?>
<!-- Generator: Adobe Illustrator 21.1.0, SVG Export Plug-In . SVG Version: 6.00 Build 0)  -->
<svg version="1.1" id="Camada_1" xmlns="http://www.w3.org/2000/svg" xmlns:xlink="http://www.w3.org/1999/xlink" x="0px" y="0px"
	 viewBox="0 0 300 200" style="enable-background:new 0 0 300 200;" xml:space="preserve">
<g>
	<polygon style="fill:none;stroke:#000000;stroke-miterlimit:10;" points="71.325,44.327 100.819,134.687 41.832,134.687 	"/>
	<line style="fill:none;stroke:#000000;stroke-miterlimit:10;" x1="53.138" y1="100.049" x2="100.819" y2="134.687"/>
	<line style="fill:none;stroke:#000000;stroke-miterlimit:10;" x1="41.832" y1="134.687" x2="71.002" y2="112.984"/>
	<line style="fill:none;stroke:#000000;stroke-miterlimit:10;" x1="53.138" y1="100.279" x2="59.975" y2="121.188"/>
	<line style="fill:none;stroke:#000000;stroke-miterlimit:10;" x1="41.673" y1="134.734" x2="71.325" y2="155.682"/>
	<line style="fill:none;stroke:#000000;stroke-miterlimit:10;" x1="71.325" y1="155.682" x2="100.972" y2="134.734"/>
</g>
<path style="fill:#070707;" d="M117.384,64.709h-7.938v-0.736h16.694v0.736h-7.938v28.478h-0.818V64.709z"/>
<path style="fill:#070707;" d="M128.443,63.972h0.818v13.257h14.075V63.972h0.818v29.214h-0.818V77.966h-14.075v15.221h-0.818
	V63.972z"/>
<path style="fill:#070707;" d="M154.396,63.972h0.818v29.214h-0.818V63.972z"/>
<path style="fill:#070707;" d="M165.434,63.972h7.897c3.764,0,7.365,1.678,7.365,7.651c0,4.337-2.291,6.874-5.851,7.283v0.082
	c4.624,0.491,5.565,3.151,5.646,8.101c0.082,4.337,0.123,4.787,0.696,6.097h-0.818c-0.45-0.941-0.532-1.309-0.695-6.178
	c-0.205-6.301-1.76-7.61-7.488-7.61h-5.933v13.789h-0.818V63.972z M166.252,78.661h5.606c5.646,0,8.02-2.7,8.02-7.038
	c0-4.542-2.169-6.915-6.628-6.915h-6.997V78.661z"/>
<path style="fill:#070707;" d="M191.407,64.709h-7.938v-0.736h16.694v0.736h-7.938v28.478h-0.818V64.709z"/>
<path style="fill:#070707;" d="M203.51,63.972h13.298v0.736h-12.48v12.848h11.579v0.737h-11.579V92.45h12.807v0.737H203.51V63.972z"
	/>
<path style="fill:#070707;" d="M222.016,63.972h13.298v0.736h-12.48v12.848h11.579v0.737h-11.579V92.45h12.807v0.737h-13.625V63.972
	z"/>
<path style="fill:#070707;" d="M239.274,63.972h1.35l13.87,27.905h0.082V63.972h0.819v29.214h-1.187l-14.034-28.478h-0.082v28.478
	h-0.818V63.972z"/>
<path style="fill:#070707;stroke:#050505;stroke-width:0.5;stroke-miterlimit:10;" d="M116.997,101.165h7.897
	c3.765,0,7.365,1.678,7.365,7.651c0,4.337-2.291,6.874-5.851,7.283v0.082c4.623,0.491,5.565,3.151,5.646,8.101
	c0.082,4.337,0.123,4.787,0.695,6.097h-0.818c-0.45-0.941-0.532-1.309-0.696-6.178c-0.204-6.301-1.759-7.61-7.488-7.61h-5.933
	v13.789h-0.818V101.165z M117.816,115.854h5.606c5.646,0,8.02-2.7,8.02-7.038c0-4.542-2.168-6.915-6.629-6.915h-6.997V115.854z"/>
<path style="fill:#070707;stroke:#050505;stroke-width:0.5;stroke-miterlimit:10;" d="M145.188,130.87
	c-7.61,0-9.329-7.856-9.329-15.098c0-7.201,1.882-15.098,9.329-15.098c9.247,0,9.533,11.252,9.533,15.098
	C154.721,119.618,154.435,130.87,145.188,130.87z M145.229,130.133c6.71,0,8.674-6.506,8.674-14.362s-1.964-14.362-8.674-14.362
	c-6.792,0-8.552,6.956-8.552,14.362C136.677,123.177,138.437,130.133,145.229,130.133z"/>
<path style="fill:#070707;stroke:#050505;stroke-width:0.5;stroke-miterlimit:10;" d="M158.648,101.165h7.447
	c4.91,0,7.529,2.7,7.529,6.792c0,4.296-1.842,6.751-5.483,7.078v0.082c4.173,0.082,6.383,3.192,6.383,7.242
	c0,5.237-3.151,8.02-8.143,8.02h-7.733V101.165z M159.467,114.749h6.22c4.091,0,7.119-1.309,7.119-6.547
	c0-3.928-2.046-6.301-6.751-6.301h-6.588V114.749z M159.467,129.642h6.22c5.36,0,8.02-2.291,8.02-7.242
	c0-5.687-3.928-6.915-7.57-6.915h-6.669V129.642z"/>
<path style="fill:#070707;stroke:#050505;stroke-width:0.5;stroke-miterlimit:10;" d="M186.839,130.87
	c-7.61,0-9.329-7.856-9.329-15.098c0-7.201,1.882-15.098,9.329-15.098c9.247,0,9.533,11.252,9.533,15.098
	C196.372,119.618,196.086,130.87,186.839,130.87z M186.88,130.133c6.71,0,8.674-6.506,8.674-14.362s-1.964-14.362-8.674-14.362
	c-6.792,0-8.552,6.956-8.552,14.362C178.328,123.177,180.088,130.133,186.88,130.133z"/>
<path style="fill:#070707;stroke:#050505;stroke-width:0.5;stroke-miterlimit:10;" d="M205.455,101.901h-7.938v-0.736h16.694v0.736
	h-7.938v28.478h-0.818V101.901z"/>
<path style="fill:#070707;stroke:#050505;stroke-width:0.5;stroke-miterlimit:10;" d="M216.829,101.165h0.818v29.214h-0.818V101.165
	z"/>
<path style="fill:#070707;stroke:#050505;stroke-width:0.5;stroke-miterlimit:10;" d="M239.742,120.682
	c-0.573,4.91-2.619,10.188-8.592,10.188c-7.61,0-9.329-7.856-9.329-15.098c0-7.242,1.718-15.098,9.329-15.098
	c6.178,0,7.938,5.278,8.143,8.838h-0.819c-0.245-4.501-2.455-8.101-7.283-8.101c-6.792,0-8.552,6.956-8.552,14.362
	c0,7.406,1.759,14.362,8.552,14.362c6.137,0,7.406-6.424,7.733-9.452H239.742z"/>
<path style="fill:#070707;stroke:#050505;stroke-width:0.5;stroke-miterlimit:10;" d="M241.992,121.459h0.818v1.268
	c0,4.46,2.619,7.406,7.161,7.406c4.051,0,7.61-2.332,7.61-7.61c0-4.46-3.764-5.728-7.16-6.833c-4.419-1.432-7.692-2.741-7.692-7.733
	c0-2.823,1.8-7.283,7.529-7.283c5.687,0,7.61,3.887,7.61,7.324v0.614h-0.818v-0.695c0-4.133-2.7-6.506-6.874-6.506
	c-4.501,0-6.628,3.355-6.628,6.71c0,9.083,14.853,4.501,14.853,14.607c0,3.805-2.332,8.142-8.388,8.142
	c-5.646,0-8.02-4.01-8.02-8.142V121.459z"/>
</svg>
