<svg id="Camada_1" data-name="Camada 1" xmlns="http://www.w3.org/2000/svg" viewBox="0 0 287.3 91.6"><defs><style>.cls-1{fill:none;stroke:#070308;stroke-miterlimit:10;stroke-width:0.81px;}.cls-2{fill:#211915;}</style></defs><title>logo_13_black</title><polygon class="cls-1" points="24.4 1.3 48.2 74.3 0.6 74.3 24.4 1.3"/><line class="cls-1" x1="9.7" y1="46.3" x2="48.2" y2="74.3"/><line class="cls-1" x1="0.6" y1="74.3" x2="24.1" y2="56.8"/><line class="cls-1" x1="9.7" y1="46.5" x2="15.2" y2="63.4"/><line class="cls-1" x1="0.4" y1="74.4" x2="24.4" y2="91.3"/><line class="cls-1" x1="24.4" y1="91.3" x2="48.4" y2="74.4"/><path class="cls-2" d="M59.5,47.6H53.4V46.4H67v1.2H60.9V69.5H59.5Z"/><path class="cls-2" d="M69.1,46.4h1.4V56.5H80.5V46.4h1.4V69.5H80.5V57.8H70.4V69.5H69.1Z"/><path class="cls-2" d="M85.9,46.4h1.4V69.5H85.9Z"/><path class="cls-2" d="M91.2,46.4h6.8c3.2,0,5.7,1.8,5.7,6S102,57.9,99,58.2h0c3.8.2,4.5,2.6,4.5,5.7v2.4a5.3,5.3,0,0,0,.8,3.1h-1.6a7.1,7.1,0,0,1-.6-3.1V64c0-3.3-.9-5.2-4.6-5.2h-5V69.5H91.2Zm5.7,11.3c2.6,0,5.4-.8,5.4-5.2s-1.7-4.9-4.6-4.9H92.5V57.7Z"/><path class="cls-2" d="M111,47.6h-6.1V46.4h13.6v1.2h-6.1V69.5H111Z"/><path class="cls-2" d="M120.5,46.4h11v1.2h-9.7v9.2h9v1.2h-9V68.3h10v1.2H120.5Z"/><path class="cls-2" d="M134.3,46.4h11v1.2h-9.7v9.2h9v1.2h-9V68.3h10v1.2H134.3Z"/><path class="cls-2" d="M149.6,46.4l10.1,20.9h.1V46.4h1.4V69.5h-1.8L149.2,48.5h-.1V69.5h-1.4V46.4Z"/><path class="cls-2" d="M172.6,46.4h6.8c3.2,0,5.7,1.8,5.7,6s-1.6,5.4-4.6,5.7h0c3.8.2,4.5,2.6,4.5,5.7v2.4a5.3,5.3,0,0,0,.8,3.1h-1.6a7.1,7.1,0,0,1-.6-3.1V64c0-3.3-.9-5.2-4.6-5.2h-5V69.5h-1.4Zm5.7,11.3c2.6,0,5.4-.8,5.4-5.2s-1.7-4.9-4.6-4.9h-5.2V57.7Z"/><path class="cls-2" d="M202.9,57.9c0,10.1-4.2,11.9-7.4,11.9s-7.5-3-7.5-11.9S191.2,46,195.5,46,202.9,49,202.9,57.9Zm-13.5,0c0,6.3,1.3,10.8,6.1,10.8s6.1-3.5,6.1-10.8-1.4-10.8-6.1-10.8S189.4,51.6,189.4,57.9Z"/><path class="cls-2" d="M206.1,46.4h6.2c4.5,0,6,2.3,6,5.8s-1.7,4.8-4.3,5.2h0c3.3.2,5,2.7,5,5.8s-2.5,6.3-6.6,6.3h-6.4Zm5.8,10.4c3,0,5.1-1.4,5.1-4.7s-1.6-4.7-4.5-4.7h-5v9.3Zm.1,11.5c3.7,0,5.7-1.4,5.7-5.2s-2.5-5.2-5.8-5.2h-4.5V68.4Z"/><path class="cls-2" d="M236.4,57.9c0,10.1-4.2,11.9-7.4,11.9s-7.5-3-7.5-11.9S224.8,46,229,46,236.4,49,236.4,57.9Zm-13.5,0c0,6.3,1.3,10.8,6.1,10.8s6.1-3.5,6.1-10.8-1.4-10.8-6.1-10.8S222.9,51.6,222.9,57.9Z"/><path class="cls-2" d="M243.9,47.6h-6.1V46.4h13.6v1.2h-6.1V69.5h-1.4Z"/><path class="cls-2" d="M253.4,46.4h1.4V69.5h-1.4Z"/><path class="cls-2" d="M270.5,53c0-3.1-1.6-5.9-5-5.9s-6.1,4.3-6.1,10.8,1.3,10.9,5.9,10.9,5.5-5.2,5.5-7h1.4c0,2.7-1.4,8.1-7.1,8.1s-7-4.4-7-11.9,2-12,7.4-12,6.5,4.8,6.5,7Z"/><path class="cls-2" d="M275.4,63.6a4.9,4.9,0,0,0,5.2,5.2,5.1,5.1,0,0,0,5.3-5.2c0-3-1.6-4-4.2-4.9l-2.6-.9c-3-1-4.7-2.5-4.7-5.7s2.6-6,6.2-6,6.2,2.4,6.2,6.3h-1.4c0-3.1-1.4-5.2-4.7-5.2s-4.9,1.2-4.9,4.8,1.4,3.8,3.4,4.5l3.4,1.2c3,1,4.7,2.5,4.7,5.9s-3,6.4-6.7,6.4c-5.3,0-6.6-3.7-6.6-6V62.4h1.4Z"/></svg>