<svg xmlns="http://www.w3.org/2000/svg" viewBox="0 0 700.48 217.39"><defs><style>.cls-1{fill:#3eaca8;}.cls-2{fill:none;stroke:#3eaca8;stroke-miterlimit:10;}</style></defs><title>Logo_thirteen_green</title><g id="Logo_Thirteen" data-name="Logo Thirteen"><path class="cls-1" d="M162.29,121.3H146.93v-1.42h32.29v1.42H163.87v55.08h-1.58Z"/><path class="cls-1" d="M183.81,119.87h1.58v25.64h27.22V119.87h1.58v56.5h-1.58V146.94H185.39v29.44h-1.58Z"/><path class="cls-1" d="M223.85,119.87h1.58v56.5h-1.58Z"/><path class="cls-1" d="M235.09,119.87h15.27c7.28,0,14.24,3.24,14.24,14.8,0,8.39-4.43,13.29-11.32,14.09v.16c8.94.95,10.76,6.09,10.92,15.67.16,8.39.24,9.26,1.35,11.79H264c-.87-1.82-1-2.53-1.35-11.95-.4-12.19-3.4-14.72-14.48-14.72H236.67v26.67h-1.58Zm1.58,28.41h10.84c10.92,0,15.51-5.22,15.51-13.61,0-8.78-4.19-13.37-12.82-13.37H236.67Z"/><path class="cls-1" d="M282.49,121.3H267.14v-1.42h32.29v1.42H284.07v55.08h-1.58Z"/><path class="cls-1" d="M304,119.87h25.72v1.42H305.6v24.85H328v1.42H305.6V175h24.77v1.42H304Z"/><path class="cls-1" d="M336.22,119.87h25.72v1.42H337.81v24.85h22.4v1.42h-22.4V175h24.77v1.42H336.22Z"/><path class="cls-1" d="M368,119.87h2.61l26.83,54h.16v-54h1.58v56.5h-2.3L369.78,121.3h-.16v55.08H368Z"/><path class="cls-1" d="M427,119.87h15.27c7.28,0,14.24,3.24,14.24,14.8,0,8.39-4.43,13.29-11.32,14.09v.16c8.94.95,10.76,6.09,10.92,15.67.16,8.39.24,9.26,1.34,11.79h-1.58c-.87-1.82-1-2.53-1.35-11.95-.4-12.19-3.4-14.72-14.48-14.72H428.57v26.67H427Zm1.58,28.41h10.84c10.92,0,15.51-5.22,15.51-13.61,0-8.78-4.19-13.37-12.82-13.37H428.57Z"/><path class="cls-1" d="M481.52,177.33c-14.72,0-18-15.19-18-29.2s3.64-29.2,18-29.2c17.89,0,18.44,21.76,18.44,29.2S499.4,177.33,481.52,177.33Zm.08-1.42c13,0,16.78-12.58,16.78-27.78s-3.8-27.78-16.78-27.78c-13.14,0-16.54,13.45-16.54,27.78S468.46,175.9,481.59,175.9Z"/><path class="cls-1" d="M507.55,119.87H522c9.5,0,14.56,5.22,14.56,13.14,0,8.31-3.56,13.06-10.6,13.69v.16c8.07.16,12.35,6.17,12.35,14,0,10.13-6.09,15.51-15.75,15.51h-15Zm1.58,26.27h12c7.91,0,13.77-2.53,13.77-12.66,0-7.6-4-12.19-13.06-12.19H509.13Zm0,28.81h12c10.37,0,15.51-4.43,15.51-14,0-11-7.6-13.37-14.64-13.37h-12.9Z"/><path class="cls-1" d="M562.07,177.33c-14.72,0-18-15.19-18-29.2s3.64-29.2,18-29.2c17.89,0,18.44,21.76,18.44,29.2S580,177.33,562.07,177.33Zm.08-1.42c13,0,16.78-12.58,16.78-27.78s-3.8-27.78-16.78-27.78c-13.14,0-16.54,13.45-16.54,27.78S549,175.9,562.15,175.9Z"/><path class="cls-1" d="M598.08,121.3H582.73v-1.42H615v1.42H599.66v55.08h-1.58Z"/><path class="cls-1" d="M620.08,119.87h1.58v56.5h-1.58Z"/><path class="cls-1" d="M664.39,157.62c-1.11,9.5-5.06,19.7-16.62,19.7-14.72,0-18-15.19-18-29.2s3.32-29.2,18-29.2c11.95,0,15.35,10.21,15.75,17.09h-1.58c-.47-8.7-4.75-15.67-14.09-15.67-13.14,0-16.54,13.45-16.54,27.78s3.4,27.78,16.54,27.78c11.87,0,14.32-12.42,15-18.28Z"/><path class="cls-1" d="M668.75,159.13h1.58v2.45c0,8.63,5.06,14.32,13.85,14.32,7.83,0,14.72-4.51,14.72-14.72,0-8.63-7.28-11.08-13.85-13.22-8.55-2.77-14.88-5.3-14.88-15,0-5.46,3.48-14.09,14.56-14.09s14.72,7.52,14.72,14.17v1.19h-1.58v-1.35c0-8-5.22-12.58-13.3-12.58-8.71,0-12.82,6.49-12.82,13,0,17.57,28.73,8.7,28.73,28.25,0,7.36-4.51,15.75-16.22,15.75-10.92,0-15.51-7.76-15.51-15.75Z"/><polygon class="cls-2" points="57.73 1.61 114.78 176.38 0.69 176.38 57.73 1.61"/><line class="cls-2" x1="22.56" y1="109.38" x2="114.78" y2="176.38"/><line class="cls-2" x1="0.69" y1="176.38" x2="57.11" y2="134.4"/><line class="cls-2" x1="22.56" y1="109.83" x2="35.78" y2="150.27"/><line class="cls-2" x1="0.38" y1="176.47" x2="57.73" y2="216.99"/><line class="cls-2" x1="57.73" y1="216.99" x2="115.07" y2="176.47"/></g></svg>