<svg xmlns="http://www.w3.org/2000/svg" viewBox="0 0 358.1 91.8"><defs><style>.cls-1{fill:#3c9591;}.cls-2{fill:none;stroke:#3c9591;stroke-miterlimit:10;stroke-width:1.8px;}</style></defs><title>Ativo 3</title><g id="Camada_2" data-name="Camada 2"><g id="Camada_5" data-name="Camada 5"><path class="cls-1" d="M78.5,43.8v2.5H72.3V66.9H69.5V46.3H63.3V43.8Z"/><path class="cls-1" d="M95.7,43.8h2.8V66.9H95.7V56.5H84.5V66.9H81.8V43.8h2.7V54H95.7Z"/><path class="cls-1" d="M104,66.9V43.8h2.7V66.9Z"/><path class="cls-1" d="M127.5,66.9h-3.3l-5.6-9.1H115v9.1h-2.8V43.8H118a8.8,8.8,0,0,1,6,1.9,6.7,6.7,0,0,1,2.1,5.2,6.9,6.9,0,0,1-1.2,4.1,7.1,7.1,0,0,1-3.4,2.4ZM115,46.2v9.2h3.5a5.2,5.2,0,0,0,3.6-1.2,4.8,4.8,0,0,0,1.2-3.3c0-3.1-1.7-4.7-5.2-4.7Z"/><path class="cls-1" d="M144.1,43.8v2.5h-6.2V66.9h-2.8V46.3h-6.2V43.8Z"/><path class="cls-1" d="M150.2,64.5h10.1v2.4H147.4V43.8h12.7v2.5h-9.9v7.9h8.7v2.4h-8.7Z"/><path class="cls-1" d="M167.3,64.5h10.1v2.4H164.6V43.8h12.6v2.5h-9.9v7.9h8.8v2.4h-8.8Z"/><path class="cls-1" d="M181.7,66.9V43.8h3.5l5.8,9.8,5.8,9.9c-.1-2.2-.1-5.5-.1-9.9V43.8h2.7V66.9H196l-5.8-9.6c-1.2-2-2.3-3.8-3.2-5.5s-1.7-2.8-2.1-3.6l-.6-1c.1,2.3.2,5.7.2,10v9.7Z"/><path class="cls-1" d="M228.4,66.9h-3.3l-5.7-9.1h-3.6v9.1h-2.7V43.8h5.7a9.1,9.1,0,0,1,6.1,1.9,6.7,6.7,0,0,1,2.1,5.2,7.7,7.7,0,0,1-1.3,4.1,6.6,6.6,0,0,1-3.4,2.4ZM215.8,46.2v9.2h3.5a4.9,4.9,0,0,0,3.6-1.2,4.4,4.4,0,0,0,1.3-3.3c0-3.1-1.8-4.7-5.2-4.7Z"/><path class="cls-1" d="M230.8,55.3c0-3.7.9-6.5,2.8-8.7a10.5,10.5,0,0,1,15.1,0c1.9,2.1,2.8,5,2.8,8.7s-.9,6.5-2.8,8.6a10.3,10.3,0,0,1-15.1,0C231.7,61.8,230.8,58.9,230.8,55.3Zm2.9,0a10.5,10.5,0,0,0,2,6.7,6.7,6.7,0,0,0,5.5,2.5,6.6,6.6,0,0,0,5.4-2.4,10.8,10.8,0,0,0,2-6.8,10.6,10.6,0,0,0-2-6.8,6.4,6.4,0,0,0-5.5-2.5,6.4,6.4,0,0,0-5.4,2.5A10.6,10.6,0,0,0,233.7,55.3Z"/><path class="cls-1" d="M255.7,43.8h7a9.4,9.4,0,0,1,5.7,1.7,5.4,5.4,0,0,1,2.1,4.4,5.5,5.5,0,0,1-1.1,3.4,4.8,4.8,0,0,1-2.9,1.9,5.3,5.3,0,0,1,3.3,1.7,5.2,5.2,0,0,1,1.4,3.8,5.9,5.9,0,0,1-1.9,4.5,7.4,7.4,0,0,1-5.2,1.7h-8.4Zm2.8,2.4v7.9h3.7a6.1,6.1,0,0,0,4.1-1.2,3.8,3.8,0,0,0,1.3-3,3.4,3.4,0,0,0-1.2-2.7,6.3,6.3,0,0,0-3.7-1Zm0,18.3h5.2a4.9,4.9,0,0,0,3.4-1,3.4,3.4,0,0,0,1.2-2.9,4.2,4.2,0,0,0-1.3-3.1,6.1,6.1,0,0,0-3.8-1.1h-4.7Z"/><path class="cls-1" d="M274.3,55.3c0-3.7.9-6.5,2.8-8.7a9.4,9.4,0,0,1,7.5-3.2,9.6,9.6,0,0,1,7.6,3.2,13,13,0,0,1,2.8,8.7,12.9,12.9,0,0,1-2.8,8.6,10.3,10.3,0,0,1-15.1,0C275.2,61.8,274.3,58.9,274.3,55.3Zm2.9,0a10.5,10.5,0,0,0,2,6.7,7.3,7.3,0,0,0,10.9.1,10.8,10.8,0,0,0,1.9-6.8c0-2.9-.6-5.2-1.9-6.8a6.6,6.6,0,0,0-5.5-2.5,6.7,6.7,0,0,0-5.5,2.5C277.8,50.1,277.2,52.4,277.2,55.3Z"/><path class="cls-1" d="M312.4,43.8v2.5h-6.2V66.9h-2.8V46.3h-6.2V43.8Z"/><path class="cls-1" d="M315.9,66.9V43.8h2.8V66.9Z"/><path class="cls-1" d="M340.6,44.8v2.8a14,14,0,0,0-2.7-1.1,13.2,13.2,0,0,0-3.2-.4,8.4,8.4,0,0,0-6.2,2.6,9.3,9.3,0,0,0-2.5,6.6,9.2,9.2,0,0,0,2.5,6.7,8.7,8.7,0,0,0,6.5,2.6,9.2,9.2,0,0,0,5.7-1.8v2.9a10.3,10.3,0,0,1-5.9,1.5,11.2,11.2,0,0,1-11.7-11.9,11.5,11.5,0,0,1,3.3-8.5,11.3,11.3,0,0,1,8.3-3.3A11.5,11.5,0,0,1,340.6,44.8Z"/><path class="cls-1" d="M356.8,44.7v2.9a9.2,9.2,0,0,0-5-1.4,5.4,5.4,0,0,0-3.3,1,3.4,3.4,0,0,0-.9,4,2.5,2.5,0,0,0,1.1,1.2l1.4.9,1.8.8,1.8.8a7.9,7.9,0,0,1,1.6,1,6.5,6.5,0,0,1,1.5,1.2,7.6,7.6,0,0,1,.9,1.6,6.5,6.5,0,0,1,.4,2.1,5.7,5.7,0,0,1-2.1,4.7,8.5,8.5,0,0,1-5.4,1.6,13.2,13.2,0,0,1-6.2-1.4v-3a10.3,10.3,0,0,0,6.1,1.9,4.9,4.9,0,0,0,3.4-1,3.3,3.3,0,0,0,1.3-2.8,2.8,2.8,0,0,0-.3-1.3,3.5,3.5,0,0,0-1-1.1l-1.3-.8-1.6-.8-.6-.3a14.7,14.7,0,0,1-2.2-1.1,5.9,5.9,0,0,1-1.9-1.2,4.3,4.3,0,0,1-1.5-1.8,6.6,6.6,0,0,1-.5-2.5,5.5,5.5,0,0,1,2.1-4.6,8.4,8.4,0,0,1,5.3-1.7A11.3,11.3,0,0,1,356.8,44.7Z"/><path class="cls-2" d="M25.8,1.5,49.1,72.8a.8.8,0,0,1-.8,1.1H1.7a.9.9,0,0,1-.8-1.1L24.2,1.5A.8.8,0,0,1,25.8,1.5Z"/><line class="cls-2" x1="10" y1="45.2" x2="48.8" y2="73.5"/><line class="cls-2" x1="1.2" y1="73.4" x2="24.8" y2="55.9"/><line class="cls-2" x1="10" y1="45.4" x2="15.6" y2="62.7"/><path class="cls-2" d="M1.1,73.6l24,17a1.7,1.7,0,0,0,1.9,0L48.8,73.8"/></g></g></svg>